<svg width="1950" height="613" xmlns="http://www.w3.org/2000/svg" xmlns:xlink="http://www.w3.org/1999/xlink" overflow="hidden"><defs><clipPath id="clip0"><rect x="532" y="706" width="1950" height="613"/></clipPath><clipPath id="clip1"><rect x="844" y="743" width="145" height="80"/></clipPath><clipPath id="clip2"><rect x="844" y="743" width="145" height="80"/></clipPath><clipPath id="clip3"><rect x="844" y="743" width="145" height="80"/></clipPath><clipPath id="clip4"><rect x="536" y="1039" width="96" height="79"/></clipPath><clipPath id="clip5"><rect x="536" y="1039" width="96" height="79"/></clipPath><clipPath id="clip6"><rect x="536" y="1039" width="96" height="79"/></clipPath><clipPath id="clip7"><rect x="958" y="1050" width="94" height="79"/></clipPath><clipPath id="clip8"><rect x="958" y="1050" width="94" height="79"/></clipPath><clipPath id="clip9"><rect x="958" y="1050" width="94" height="79"/></clipPath><clipPath id="clip10"><rect x="1606" y="1050" width="233" height="90"/></clipPath><clipPath id="clip11"><rect x="1606" y="1050" width="233" height="90"/></clipPath><clipPath id="clip12"><rect x="1606" y="1050" width="233" height="90"/></clipPath><clipPath id="clip13"><rect x="2109" y="1061" width="122" height="79"/></clipPath><clipPath id="clip14"><rect x="2109" y="1061" width="122" height="79"/></clipPath><clipPath id="clip15"><rect x="2109" y="1061" width="122" height="79"/></clipPath><clipPath id="clip16"><rect x="1228" y="743" width="146" height="80"/></clipPath><clipPath id="clip17"><rect x="1228" y="743" width="146" height="80"/></clipPath><clipPath id="clip18"><rect x="1228" y="743" width="146" height="80"/></clipPath><clipPath id="clip19"><rect x="2009" y="743" width="146" height="80"/></clipPath><clipPath id="clip20"><rect x="2009" y="743" width="146" height="80"/></clipPath><clipPath id="clip21"><rect x="2009" y="743" width="146" height="80"/></clipPath></defs><g clip-path="url(#clip0)" transform="translate(-532 -706)"><rect x="833.5" y="709.5" width="156" height="149" stroke="#000000" stroke-width="6.875" stroke-miterlimit="8" fill="none"/><g clip-path="url(#clip1)"><g clip-path="url(#clip2)"><g clip-path="url(#clip3)"><path d="M12.1846-7.60393C17.1317-12.9175 19.7885-15.2079 23.0867-18.0479 23.0867-18.1395 28.7667-22.995 32.0647-26.2931 40.768-34.8132 42.7836-39.2106 42.7836-39.5771 42.7836-40.4933 41.9591-40.4933 41.7758-40.4933 41.1346-40.4933 40.8597-40.31 40.4016-39.4855 37.6533-35.088 35.7293-33.6222 33.5306-33.6222 31.3319-33.6222 30.2325-34.9964 28.8583-36.5538 27.1176-38.6609 25.5602-40.4933 22.537-40.4933 15.6659-40.4933 11.4517-31.9732 11.4517-30.0493 11.4517-29.5912 11.7266-29.0416 12.5511-29.0416 13.3755-29.0416 13.5588-29.4996 13.7421-30.0493 15.4827-34.2635 20.7963-34.3551 21.5292-34.3551 23.4531-34.3551 25.1938-33.7138 27.3009-32.9809 30.9654-31.6067 31.9732-31.6067 34.3551-31.6067 31.057-27.6673 23.3615-21.0712 21.6208-19.6053L13.3756-11.9097C7.14587-5.77166 3.93939-0.549682 3.93939 0.0916137 3.93939 1.00775 4.85552 1.00775 5.03875 1.00775 5.77166 1.00775 5.95489 0.824523 6.50457-0.183227 8.61168-3.38971 11.3601-5.86327 14.2917-5.86327 16.3988-5.86327 17.315-5.03875 19.6053-2.38196 21.1628-0.458068 22.8118 1.00775 25.4686 1.00775 34.5384 1.00775 39.852-10.6272 39.852-13.1008 39.852-13.5588 39.4855-14.0169 38.7526-14.0169 37.928-14.0169 37.7448-13.4672 37.47-12.8259 35.3629-6.87102 29.4996-5.13037 26.4763-5.13037 24.6441-5.13037 22.995-5.68005 21.0712-6.32134 17.9563-7.51232 16.5821-7.87877 14.6582-7.87877 14.475-7.87877 13.0091-7.87877 12.1846-7.60393Z" transform="matrix(1.00253 0 0 1 846.872 823)"/><path d="M47.7124-14.4933C48.7384-14.4933 50.2776-14.4933 50.2776-16.0324 50.2776-17.6356 48.8026-17.6356 47.7124-17.6356L9.49118-17.6356C8.4651-17.6356 6.926-17.6356 6.926-16.0966 6.926-14.4933 8.40097-14.4933 9.49118-14.4933L47.7124-14.4933Z" transform="matrix(1.00253 0 0 1 893.465 785.174)"/><path d="M21.4834-40.7864C21.4834-42.5179 21.3551-42.5821 19.5595-42.5821 15.4552-38.5418 9.61946-38.4777 6.99012-38.4777L6.99012-36.1691C8.52923-36.1691 12.7618-36.1691 16.2889-37.9647L16.2889-5.25863C16.2889-3.14235 16.2889-2.30867 9.87593-2.30867L7.43903-2.30867 7.43903 0C8.59336-0.0641296 16.4813-0.256518 18.8541-0.256518 20.8421-0.256518 28.9225-0.0641296 30.3333 0L30.3333-2.30867 27.8963-2.30867C21.4834-2.30867 21.4834-3.14235 21.4834-5.25863L21.4834-40.7864Z" transform="matrix(1.00253 0 0 1 950.659 785.174)"/></g></g></g><g clip-path="url(#clip4)"><g clip-path="url(#clip5)"><g clip-path="url(#clip6)"><path d="M26.9323-64.0932C26.9323-64.1871 26.9323-65.1254 25.7123-65.1254 23.554-65.1254 16.7036-64.3747 14.2638-64.1871 13.5131-64.0932 12.4808-63.9993 12.4808-62.3102 12.4808-61.1841 13.3253-61.1841 14.7329-61.1841 19.2373-61.1841 19.4251-60.5272 19.4251-59.5889L19.1435-57.712 5.5366-3.65979C5.16124-2.34602 5.16124-2.15834 5.16124-1.59529 5.16124 0.563044 7.03805 1.03225 7.88262 1.03225 9.38407 1.03225 10.8856-0.0938407 11.3547-1.40761L13.1377-8.5395 15.2022-16.9852C15.7652-19.0497 16.3283-21.1141 16.7975-23.2724 16.9852-23.8355 17.7359-26.9323 17.8297-27.4953 18.1113-28.3399 21.0203-33.595 24.2109-36.1287 26.2754-37.6301 29.1844-39.4131 33.2196-39.4131 37.2547-39.4131 38.287-36.2225 38.287-32.8442 38.287-27.7768 34.7211-17.5482 32.4688-11.8239 31.7181-9.66557 31.249-8.5395 31.249-6.66268 31.249-2.25217 34.5334 1.03225 38.9439 1.03225 47.7649 1.03225 51.237-12.6685 51.237-13.4192 51.237-14.3576 50.3925-14.3576 50.1109-14.3576 49.1725-14.3576 49.1725-14.0761 48.7033-12.6685 47.2957-7.69493 44.2928-1.03225 39.1316-1.03225 37.5363-1.03225 36.8794-1.97065 36.8794-4.12899 36.8794-6.47501 37.7239-8.72719 38.5686-10.7916 40.07-14.8269 44.2928-25.9939 44.2928-31.4366 44.2928-37.5363 40.5392-41.4776 33.5011-41.4776 27.5892-41.4776 23.0848-38.5686 19.6127-34.2518L26.9323-64.0932Z" transform="matrix(1.00682 0 0 1 538.123 1103.92)"/><path d="M33.8953-20.9546C33.8953-28.1804 33.0413-33.3697 30.0197-37.9679 27.9833-40.9896 23.9106-43.6172 18.6555-43.6172 3.4158-43.6172 3.4158-25.6842 3.4158-20.9546 3.4158-16.2251 3.4158 1.31377 18.6555 1.31377 33.8952 1.31377 33.8953-16.225 33.8953-20.9546ZM18.6555-0.525508C15.6339-0.525508 11.6269-2.2991 10.3131-7.68555 9.39345-11.5612 9.39345-16.9476 9.39345-21.8086 9.39345-26.6038 9.39345-31.5962 10.3788-35.209 11.7582-40.3984 15.9623-41.7779 18.6555-41.7779 22.2027-41.7779 25.6185-39.6102 26.8009-35.8002 27.8519-32.2531 27.9176-27.5235 27.9176-21.8086 27.9176-16.9476 27.9176-12.0867 27.0637-7.94831 25.7499-1.97065 21.2831-0.525508 18.6555-0.525508Z" transform="matrix(1.00682 0 0 1 592.36 1118)"/></g></g></g><g clip-path="url(#clip7)"><g clip-path="url(#clip8)"><g clip-path="url(#clip9)"><path d="M26.9323-64.0932C26.9323-64.1871 26.9323-65.1254 25.7123-65.1254 23.554-65.1254 16.7036-64.3747 14.2638-64.1871 13.5131-64.0932 12.4808-63.9993 12.4808-62.3102 12.4808-61.1841 13.3253-61.1841 14.7329-61.1841 19.2373-61.1841 19.4251-60.5272 19.4251-59.5889L19.1435-57.712 5.5366-3.65979C5.16124-2.34602 5.16124-2.15834 5.16124-1.59529 5.16124 0.563044 7.03805 1.03225 7.88262 1.03225 9.38407 1.03225 10.8856-0.0938407 11.3547-1.40761L13.1377-8.5395 15.2022-16.9852C15.7652-19.0497 16.3283-21.1141 16.7975-23.2724 16.9852-23.8355 17.7359-26.9323 17.8297-27.4953 18.1113-28.3399 21.0203-33.595 24.2109-36.1287 26.2754-37.6301 29.1844-39.4131 33.2196-39.4131 37.2547-39.4131 38.287-36.2225 38.287-32.8442 38.287-27.7768 34.7211-17.5482 32.4688-11.8239 31.7181-9.66557 31.249-8.5395 31.249-6.66268 31.249-2.25217 34.5334 1.03225 38.9439 1.03225 47.7649 1.03225 51.237-12.6685 51.237-13.4192 51.237-14.3576 50.3925-14.3576 50.1109-14.3576 49.1725-14.3576 49.1725-14.0761 48.7033-12.6685 47.2957-7.69493 44.2928-1.03225 39.1316-1.03225 37.5363-1.03225 36.8794-1.97065 36.8794-4.12899 36.8794-6.47501 37.7239-8.72719 38.5686-10.7916 40.07-14.8269 44.2928-25.9939 44.2928-31.4366 44.2928-37.5363 40.5392-41.4776 33.5011-41.4776 27.5892-41.4776 23.0848-38.5686 19.6127-34.2518L26.9323-64.0932Z" transform="matrix(1.00682 0 0 1 959.123 1114.92)"/><path d="M22.0056-41.7779C22.0056-43.5515 21.8743-43.6172 20.035-43.6172 15.8309-39.4788 9.8533-39.4131 7.16004-39.4131L7.16004-37.0483C8.73657-37.0483 13.072-37.0483 16.6849-38.8876L16.6849-5.38646C16.6849-3.21874 16.6849-2.36479 10.116-2.36479L7.61986-2.36479 7.61986 0C8.80226-0.0656885 16.8819-0.262754 19.3124-0.262754 21.3488-0.262754 29.6255-0.0656885 31.0707 0L31.0707-2.36479 28.5745-2.36479C22.0056-2.36479 22.0056-3.21874 22.0056-5.38646L22.0056-41.7779Z" transform="matrix(1.00682 0 0 1 1013.36 1129)"/></g></g></g><g clip-path="url(#clip10)"><g clip-path="url(#clip11)"><g clip-path="url(#clip12)"><path d="M27.8682-66.3203C27.8682-66.4175 27.8682-67.3885 26.6058-67.3885 24.3725-67.3885 17.2841-66.6117 14.7594-66.4175 13.9826-66.3203 12.9145-66.2233 12.9145-64.4754 12.9145-63.3102 13.7884-63.3102 15.2449-63.3102 19.9058-63.3102 20.1001-62.6305 20.1001-61.6595L19.8087-59.7174 5.72899-3.78696C5.34058-2.42754 5.34058-2.23334 5.34058-1.65073 5.34058 0.582609 7.28262 1.06812 8.15654 1.06812 9.71016 1.06812 11.2638-0.0971016 11.7493-1.45653L13.5942-8.83624 15.7305-17.5754C16.313-19.7117 16.8957-21.8478 17.3812-24.0811 17.5754-24.6638 18.3522-27.8682 18.4493-28.4507 18.7406-29.3247 21.7507-34.7624 25.0522-37.3841 27.1884-38.9377 30.1986-40.7827 34.3739-40.7827 38.5492-40.7827 39.6175-37.4812 39.6175-33.9855 39.6175-28.7421 35.9276-18.158 33.5971-12.2348 32.8203-10.0014 32.3348-8.83624 32.3348-6.89421 32.3348-2.33043 35.7334 1.06812 40.2972 1.06812 49.4247 1.06812 53.0174-13.1087 53.0174-13.8855 53.0174-14.8565 52.1436-14.8565 51.8522-14.8565 50.8812-14.8565 50.8812-14.5653 50.3957-13.1087 48.9392-7.96232 45.832-1.06812 40.4913-1.06812 38.8407-1.06812 38.1609-2.03913 38.1609-4.27247 38.1609-6.70001 39.0348-9.03045 39.9088-11.1666 41.4624-15.3421 45.832-26.8971 45.832-32.529 45.832-38.8407 41.9479-42.9189 34.6652-42.9189 28.5479-42.9189 23.887-39.9088 20.2942-35.442L27.8682-66.3203Z" transform="matrix(1 0 0 1.00215 1610.34 1117.32)"/><path d="M56.6879-39.0154C57.3676-41.5984 58.4552-43.8413 63.8929-43.9773 64.2327-43.9773 65.2522-44.0452 65.2522-45.4726 65.2522-45.8805 64.9124-46.4243 64.2327-46.4243 61.9897-46.4243 59.4747-46.1524 57.1637-46.1524 55.5324-46.1524 51.5901-46.4243 49.9588-46.4243 49.6189-46.4243 48.5993-46.4243 48.5993-44.9289 48.5993-44.0452 49.4829-43.9773 50.0947-43.9773 53.2894-43.9094 54.4448-42.8898 54.4448-41.1905 54.4448-40.6467 54.3769-40.3068 54.173-39.5592L46.7641-9.92376 29.4995-45.2687C28.9557-46.4243 28.8197-46.4243 27.1884-46.4243L17.8764-46.4243C16.585-46.4243 15.7013-46.4243 15.7013-44.9289 15.7013-43.9773 16.517-43.9773 17.9444-43.9773 19.3718-43.9773 20.8671-43.9094 22.2945-43.6374L13.1864-7.27291C12.5746-4.69001 11.4192-2.65087 6.1174-2.44696 5.6416-2.44696 4.69001-2.37899 4.69001-1.01957 4.69001-0.271885 5.23377 0 5.70957 0 7.95262 0 10.4675-0.271885 12.7785-0.271885 14.4099-0.271885 18.3522 0 19.9835 0 20.6632 0 21.3429-0.339855 21.3429-1.42739 21.3429-2.37899 20.5273-2.44696 19.7796-2.44696 15.4974-2.5829 15.4974-4.35015 15.4974-5.30174 15.4974-5.57364 15.4974-5.91349 15.7693-7.00102L24.4696-41.8023 44.3172-1.1555C44.8609-0.0679711 45.1329 0 45.8125 0 46.9001 0 46.9001-0.203913 47.2399-1.42739L56.6879-39.0154Z" transform="matrix(1 0 0 1.00215 1666.07 1131.92)"/><path d="M50.5705-15.3615C51.658-15.3615 53.2894-15.3615 53.2894-16.9928 53.2894-18.6921 51.726-18.6921 50.5705-18.6921L10.0597-18.6921C8.97219-18.6921 7.34088-18.6921 7.34088-17.0608 7.34088-15.3615 8.90421-15.3615 10.0597-15.3615L50.5705-15.3615Z" transform="matrix(1 0 0 1.00215 1734.64 1131.92)"/><path d="M22.7703-43.2296C22.7703-45.0648 22.6344-45.1329 20.7311-45.1329 16.3811-40.8506 10.1957-40.7827 7.40885-40.7827L7.40885-38.3357C9.04016-38.3357 13.5263-38.3357 17.2647-40.2389L17.2647-5.57364C17.2647-3.33059 17.2647-2.44696 10.4675-2.44696L7.88464-2.44696 7.88464 0C9.10813-0.0679711 17.4686-0.271885 19.9835-0.271885 22.0906-0.271885 30.655-0.0679711 32.1503 0L32.1503-2.44696 29.5674-2.44696C22.7703-2.44696 22.7703-3.33059 22.7703-5.57364L22.7703-43.2296Z" transform="matrix(1 0 0 1.00215 1795.09 1131.92)"/></g></g></g><g clip-path="url(#clip13)"><g clip-path="url(#clip14)"><g clip-path="url(#clip15)"><path d="M26.6918-63.5207C26.6918-63.6138 26.6918-64.5437 25.4827-64.5437 23.3436-64.5437 16.5545-63.7997 14.1364-63.6138 13.3924-63.5207 12.3693-63.4277 12.3693-61.7537 12.3693-60.6376 13.2063-60.6376 14.6014-60.6376 19.0655-60.6376 19.2516-59.9866 19.2516-59.0567L18.9725-57.1965 5.48715-3.6271C5.11514-2.32506 5.11514-2.13906 5.11514-1.58104 5.11514 0.558015 6.97519 1.02303 7.81222 1.02303 9.30025 1.02303 10.7883-0.0930025 11.2533-1.39504L13.0204-8.46323 15.0664-16.8335C15.6244-18.8796 16.1824-20.9255 16.6474-23.0646 16.8335-23.6226 17.5775-26.6918 17.6705-27.2497 17.9495-28.0868 20.8326-33.295 23.9946-35.806 26.0407-37.294 28.9238-39.0611 32.9229-39.0611 36.9219-39.0611 37.9451-35.899 37.9451-32.5509 37.9451-27.5287 34.411-17.3914 32.1788-11.7183 31.4348-9.57924 30.9699-8.46323 30.9699-6.60318 30.9699-2.23206 34.2249 1.02303 38.5961 1.02303 47.3383 1.02303 50.7794-12.5554 50.7794-13.2994 50.7794-14.2294 49.9424-14.2294 49.6634-14.2294 48.7333-14.2294 48.7333-13.9504 48.2683-12.5554 46.8733-7.6262 43.8972-1.02303 38.7821-1.02303 37.2011-1.02303 36.55-1.95305 36.55-4.09211 36.55-6.41717 37.387-8.64924 38.2241-10.6953 39.7121-14.6944 43.8972-25.7617 43.8972-31.1558 43.8972-37.2011 40.1771-41.1072 33.2019-41.1072 27.3428-41.1072 22.8786-38.2241 19.4375-33.9459L26.6918-63.5207Z" transform="matrix(1 0 0 1.00901 2110.99 1125.92)"/><path d="M54.2949-37.3684C54.9459-39.8423 55.9875-41.9906 61.1957-42.1209 61.5212-42.1209 62.4977-42.1859 62.4977-43.5531 62.4977-43.9437 62.1722-44.4645 61.5212-44.4645 59.3728-44.4645 56.9641-44.2041 54.7506-44.2041 53.1881-44.2041 49.4122-44.4645 47.8498-44.4645 47.5243-44.4645 46.5478-44.4645 46.5478-43.0322 46.5478-42.1859 47.3941-42.1209 47.9801-42.1209 51.0398-42.0558 52.1465-41.0792 52.1465-39.4517 52.1465-38.9309 52.0814-38.6053 51.8861-37.8892L44.7901-9.50484 28.2542-43.3578C27.7334-44.4645 27.6031-44.4645 26.0407-44.4645L17.1217-44.4645C15.8848-44.4645 15.0385-44.4645 15.0385-43.0322 15.0385-42.1209 15.8198-42.1209 17.1869-42.1209 18.554-42.1209 19.9862-42.0558 21.3534-41.7953L12.6298-6.96589C12.0438-4.49203 10.9371-2.53897 5.85916-2.34367 5.40344-2.34367 4.49203-2.27857 4.49203-0.976529 4.49203-0.260407 5.01283 0 5.46855 0 7.61691 0 10.0257-0.260407 12.2391-0.260407 13.8016-0.260407 17.5775 0 19.1399 0 19.7909 0 20.442-0.325509 20.442-1.36714 20.442-2.27857 19.6607-2.34367 18.9446-2.34367 14.8432-2.47387 14.8432-4.16651 14.8432-5.07794 14.8432-5.33835 14.8432-5.66386 15.1036-6.70548L23.4367-40.0376 42.4464-1.10673C42.9672-0.0651018 43.2276 0 43.8786 0 44.9203 0 44.9203-0.195305 45.2457-1.36714L54.2949-37.3684Z" transform="matrix(1 0 0 1.00901 2164.36 1140)"/></g></g></g><path d="M724.5 780.062 810.431 780.063 810.431 786.938 724.5 786.937ZM805.847 769.75 833.347 783.5 805.847 797.25Z"/><path d="M793.5 981.5 706.5 1129.5 619.5 981.5Z" stroke="#000000" stroke-width="4.58333" stroke-miterlimit="8" fill="none" fill-rule="evenodd"/><path d="M0 0 0.000360892 179.674" stroke="#000000" stroke-width="6.875" stroke-miterlimit="8" fill="none" fill-rule="evenodd" transform="matrix(-1 0 0 1 706.5 801.5)"/><path d="M688.5 784C688.5 774.335 696.559 766.5 706.5 766.5 716.441 766.5 724.5 774.335 724.5 784 724.5 793.665 716.441 801.5 706.5 801.5 696.559 801.5 688.5 793.665 688.5 784Z" stroke="#000000" stroke-width="4.58333" stroke-miterlimit="8" fill-rule="evenodd"/><path d="M0 0 118.348 0.000360892" stroke="#000000" stroke-width="6.875" stroke-miterlimit="8" fill="none" fill-rule="evenodd" transform="matrix(-1 0 0 1 688.848 783.5)"/><path d="M534.5 784C534.5 774.335 542.559 766.5 552.5 766.5 562.441 766.5 570.5 774.335 570.5 784 570.5 793.665 562.441 801.5 552.5 801.5 542.559 801.5 534.5 793.665 534.5 784Z" stroke="#000000" stroke-width="4.58333" stroke-miterlimit="8" fill="none" fill-rule="evenodd"/><path d="M1102.5 1221.5 1102.5 1315.5M1055.5 1268.5 1149.5 1268.5" stroke="#000000" stroke-width="6.875" stroke-miterlimit="8" fill="none" fill-rule="evenodd"/><path d="M1055.5 1268.5C1055.5 1242.54 1076.54 1221.5 1102.5 1221.5 1128.46 1221.5 1149.5 1242.54 1149.5 1268.5 1149.5 1294.46 1128.46 1315.5 1102.5 1315.5 1076.54 1315.5 1055.5 1294.46 1055.5 1268.5Z" stroke="#000000" stroke-width="6.875" stroke-miterlimit="8" fill="none" fill-rule="evenodd"/><path d="M0-3.4375 142.187-3.4375 142.187 326.327 135.312 326.327 135.312 0 138.75 3.4375 0 3.4375ZM152.5 321.743 138.75 349.243 125 321.743Z" transform="matrix(1.83697e-16 1 1 -1.83697e-16 706.5 1129.5)"/><rect x="1217.5" y="709.5" width="157" height="149" stroke="#000000" stroke-width="6.875" stroke-miterlimit="8" fill="none"/><g clip-path="url(#clip16)"><g clip-path="url(#clip17)"><g clip-path="url(#clip18)"><path d="M12.1846-7.60393C17.1317-12.9175 19.7885-15.2079 23.0867-18.0479 23.0867-18.1395 28.7667-22.995 32.0647-26.2931 40.768-34.8132 42.7836-39.2106 42.7836-39.5771 42.7836-40.4933 41.9591-40.4933 41.7758-40.4933 41.1346-40.4933 40.8597-40.31 40.4016-39.4855 37.6533-35.088 35.7293-33.6222 33.5306-33.6222 31.3319-33.6222 30.2325-34.9964 28.8583-36.5538 27.1176-38.6609 25.5602-40.4933 22.537-40.4933 15.6659-40.4933 11.4517-31.9732 11.4517-30.0493 11.4517-29.5912 11.7266-29.0416 12.5511-29.0416 13.3755-29.0416 13.5588-29.4996 13.7421-30.0493 15.4827-34.2635 20.7963-34.3551 21.5292-34.3551 23.4531-34.3551 25.1938-33.7138 27.3009-32.9809 30.9654-31.6067 31.9732-31.6067 34.3551-31.6067 31.057-27.6673 23.3615-21.0712 21.6208-19.6053L13.3756-11.9097C7.14587-5.77166 3.93939-0.549682 3.93939 0.0916137 3.93939 1.00775 4.85552 1.00775 5.03875 1.00775 5.77166 1.00775 5.95489 0.824523 6.50457-0.183227 8.61168-3.38971 11.3601-5.86327 14.2917-5.86327 16.3988-5.86327 17.315-5.03875 19.6053-2.38196 21.1628-0.458068 22.8118 1.00775 25.4686 1.00775 34.5384 1.00775 39.852-10.6272 39.852-13.1008 39.852-13.5588 39.4855-14.0169 38.7526-14.0169 37.928-14.0169 37.7448-13.4672 37.47-12.8259 35.3629-6.87102 29.4996-5.13037 26.4763-5.13037 24.6441-5.13037 22.995-5.68005 21.0712-6.32134 17.9563-7.51232 16.5821-7.87877 14.6582-7.87877 14.475-7.87877 13.0091-7.87877 12.1846-7.60393Z" transform="matrix(1.00949 0 0 1 1230.88 823)"/><path d="M47.7124-14.4933C48.7384-14.4933 50.2776-14.4933 50.2776-16.0324 50.2776-17.6356 48.8026-17.6356 47.7124-17.6356L9.49118-17.6356C8.4651-17.6356 6.926-17.6356 6.926-16.0966 6.926-14.4933 8.40097-14.4933 9.49118-14.4933L47.7124-14.4933Z" transform="matrix(1.00949 0 0 1 1277.8 785.174)"/><path d="M21.4834-40.7864C21.4834-42.5179 21.3551-42.5821 19.5595-42.5821 15.4552-38.5418 9.61946-38.4777 6.99012-38.4777L6.99012-36.1691C8.52923-36.1691 12.7618-36.1691 16.2889-37.9647L16.2889-5.25863C16.2889-3.14235 16.2889-2.30867 9.87593-2.30867L7.43903-2.30867 7.43903 0C8.59336-0.0641296 16.4813-0.256518 18.8541-0.256518 20.8421-0.256518 28.9225-0.0641296 30.3333 0L30.3333-2.30867 27.8963-2.30867C21.4834-2.30867 21.4834-3.14235 21.4834-5.25863L21.4834-40.7864Z" transform="matrix(1.00949 0 0 1 1335.39 785.174)"/></g></g></g><path d="M1122.5 780.062 1194.7 780.063 1194.7 786.938 1122.5 786.937ZM1190.12 769.75 1217.62 783.5 1190.12 797.25Z"/><path d="M1087.5 784C1087.5 774.335 1095.34 766.5 1105 766.5 1114.66 766.5 1122.5 774.335 1122.5 784 1122.5 793.665 1114.66 801.5 1105 801.5 1095.34 801.5 1087.5 793.665 1087.5 784Z" stroke="#000000" stroke-width="4.58333" stroke-miterlimit="8" fill-rule="evenodd"/><path d="M0 0 97.3027 0.000360892" stroke="#000000" stroke-width="6.875" stroke-miterlimit="8" fill="none" fill-rule="evenodd" transform="matrix(-1 0 0 1 1086.8 783.5)"/><path d="M1189.5 972.5 1103 1120.5 1016.5 972.5Z" stroke="#000000" stroke-width="4.58333" stroke-miterlimit="8" fill="none" fill-rule="evenodd"/><path d="M0 0 2.03471 170.794" stroke="#000000" stroke-width="6.875" stroke-miterlimit="8" fill="none" fill-rule="evenodd" transform="matrix(-1 0 0 1 1104.53 801.5)"/><path d="M1105.94 1120.5 1105.94 1198.18 1099.06 1198.18 1099.06 1120.5ZM1116.25 1193.6 1102.5 1221.1 1088.75 1193.6Z"/><path d="M1149.5 1265.06 1462.56 1265.06 1462.56 1271.94 1149.5 1271.94ZM1457.97 1254.75 1485.47 1268.5 1457.97 1282.25Z"/><path d="M0 0 116.185 0.000360892" stroke="#000000" stroke-width="6.875" stroke-miterlimit="8" fill="none" fill-rule="evenodd" transform="matrix(-1 0 0 1 1490.69 783.5)"/><path d="M1518.5 783.5 1647.63 783.5" stroke="#000000" stroke-width="6.875" stroke-miterlimit="8" stroke-dasharray="27.5 20.625" fill="none" fill-rule="evenodd"/><path d="M1518.5 1268.5 1647.63 1268.5" stroke="#000000" stroke-width="6.875" stroke-miterlimit="8" stroke-dasharray="27.5 20.625" fill="none" fill-rule="evenodd"/><rect x="1998.5" y="709.5" width="157" height="149" stroke="#000000" stroke-width="6.875" stroke-miterlimit="8" fill="none"/><g clip-path="url(#clip19)"><g clip-path="url(#clip20)"><g clip-path="url(#clip21)"><path d="M12.1846-7.60393C17.1317-12.9175 19.7885-15.2079 23.0867-18.0479 23.0867-18.1395 28.7667-22.995 32.0647-26.2931 40.768-34.8132 42.7836-39.2106 42.7836-39.5771 42.7836-40.4933 41.9591-40.4933 41.7758-40.4933 41.1346-40.4933 40.8597-40.31 40.4016-39.4855 37.6533-35.088 35.7293-33.6222 33.5306-33.6222 31.3319-33.6222 30.2325-34.9964 28.8583-36.5538 27.1176-38.6609 25.5602-40.4933 22.537-40.4933 15.6659-40.4933 11.4517-31.9732 11.4517-30.0493 11.4517-29.5912 11.7266-29.0416 12.5511-29.0416 13.3755-29.0416 13.5588-29.4996 13.7421-30.0493 15.4827-34.2635 20.7963-34.3551 21.5292-34.3551 23.4531-34.3551 25.1938-33.7138 27.3009-32.9809 30.9654-31.6067 31.9732-31.6067 34.3551-31.6067 31.057-27.6673 23.3615-21.0712 21.6208-19.6053L13.3756-11.9097C7.14587-5.77166 3.93939-0.549682 3.93939 0.0916137 3.93939 1.00775 4.85552 1.00775 5.03875 1.00775 5.77166 1.00775 5.95489 0.824523 6.50457-0.183227 8.61168-3.38971 11.3601-5.86327 14.2917-5.86327 16.3988-5.86327 17.315-5.03875 19.6053-2.38196 21.1628-0.458068 22.8118 1.00775 25.4686 1.00775 34.5384 1.00775 39.852-10.6272 39.852-13.1008 39.852-13.5588 39.4855-14.0169 38.7526-14.0169 37.928-14.0169 37.7448-13.4672 37.47-12.8259 35.3629-6.87102 29.4996-5.13037 26.4763-5.13037 24.6441-5.13037 22.995-5.68005 21.0712-6.32134 17.9563-7.51232 16.5821-7.87877 14.6582-7.87877 14.475-7.87877 13.0091-7.87877 12.1846-7.60393Z" transform="matrix(1.00949 0 0 1 2011.88 823)"/><path d="M47.7124-14.4933C48.7384-14.4933 50.2776-14.4933 50.2776-16.0324 50.2776-17.6356 48.8026-17.6356 47.7124-17.6356L9.49118-17.6356C8.4651-17.6356 6.926-17.6356 6.926-16.0966 6.926-14.4933 8.40097-14.4933 9.49118-14.4933L47.7124-14.4933Z" transform="matrix(1.00949 0 0 1 2058.8 785.174)"/><path d="M21.4834-40.7864C21.4834-42.5179 21.3551-42.5821 19.5595-42.5821 15.4552-38.5418 9.61946-38.4777 6.99012-38.4777L6.99012-36.1691C8.52923-36.1691 12.7618-36.1691 16.2889-37.9647L16.2889-5.25863C16.2889-3.14235 16.2889-2.30867 9.87593-2.30867L7.43903-2.30867 7.43903 0C8.59336-0.0641296 16.4813-0.256518 18.8541-0.256518 20.8421-0.256518 28.9225-0.0641296 30.3333 0L30.3333-2.30867 27.8963-2.30867C21.4834-2.30867 21.4834-3.14235 21.4834-5.25863L21.4834-40.7864Z" transform="matrix(1.00949 0 0 1 2116.39 785.174)"/></g></g></g><path d="M1889.5 780.062 1975.43 780.063 1975.43 786.938 1889.5 786.937ZM1970.85 769.75 1998.35 783.5 1970.85 797.25Z"/><path d="M1958.5 981.5 1872 1129.5 1785.5 981.5Z" stroke="#000000" stroke-width="4.58333" stroke-miterlimit="8" fill="none" fill-rule="evenodd"/><path d="M0 0 0.000360892 179.674" stroke="#000000" stroke-width="6.875" stroke-miterlimit="8" fill="none" fill-rule="evenodd" transform="matrix(-1 0 0 1 1871.5 801.5)"/><path d="M1854.5 784C1854.5 774.335 1862.34 766.5 1872 766.5 1881.67 766.5 1889.5 774.335 1889.5 784 1889.5 793.665 1881.67 801.5 1872 801.5 1862.34 801.5 1854.5 793.665 1854.5 784Z" stroke="#000000" stroke-width="4.58333" stroke-miterlimit="8" fill-rule="evenodd"/><path d="M0 0 184.576 0.000360892" stroke="#000000" stroke-width="6.875" stroke-miterlimit="8" fill="none" fill-rule="evenodd" transform="matrix(-1 0 0 1 1854.08 783.5)"/><path d="M2268.5 1221.5 2268.5 1315.5M2221.5 1268.5 2315.5 1268.5" stroke="#000000" stroke-width="6.875" stroke-miterlimit="8" fill="none" fill-rule="evenodd"/><path d="M2221.5 1268.5C2221.5 1242.54 2242.54 1221.5 2268.5 1221.5 2294.46 1221.5 2315.5 1242.54 2315.5 1268.5 2315.5 1294.46 2294.46 1315.5 2268.5 1315.5 2242.54 1315.5 2221.5 1294.46 2221.5 1268.5Z" stroke="#000000" stroke-width="6.875" stroke-miterlimit="8" fill="none" fill-rule="evenodd"/><path d="M2354.5 972.5 2268 1120.5 2181.5 972.5Z" stroke="#000000" stroke-width="4.58333" stroke-miterlimit="8" fill="none" fill-rule="evenodd"/><path d="M2271.94 1120.5 2271.94 1198.18 2265.06 1198.18 2265.06 1120.5ZM2282.25 1193.6 2268.5 1221.1 2254.75 1193.6Z"/><path d="M1871.5 1221.5 1871.5 1315.5M1824.5 1268.5 1918.5 1268.5" stroke="#000000" stroke-width="6.875" stroke-miterlimit="8" fill="none" fill-rule="evenodd"/><path d="M1824.5 1268.5C1824.5 1242.54 1845.54 1221.5 1871.5 1221.5 1897.46 1221.5 1918.5 1242.54 1918.5 1268.5 1918.5 1294.46 1897.46 1315.5 1871.5 1315.5 1845.54 1315.5 1824.5 1294.46 1824.5 1268.5Z" stroke="#000000" stroke-width="6.875" stroke-miterlimit="8" fill="none" fill-rule="evenodd"/><path d="M4.10493e-06-3.4375 279.298-3.43717 279.298 3.43783-4.10493e-06 3.4375ZM274.714-13.7497 302.214 0.000360892 274.714 13.7503Z" transform="matrix(1 0 0 -1 1918.5 1268.5)"/><path d="M1874.94 1129.5 1874.94 1198.3 1868.06 1198.3 1868.06 1129.5ZM1885.25 1193.72 1871.5 1221.22 1857.75 1193.72Z"/><path d="M1665.5 1265.06 1802.36 1265.06 1802.36 1271.94 1665.5 1271.94ZM1797.78 1254.75 1825.28 1268.5 1797.78 1282.25Z"/><path d="M2315.5 1268.5 2444.37 1268.5" stroke="#000000" stroke-width="6.875" stroke-miterlimit="8" fill="none" fill-rule="evenodd"/><path d="M2444.5 1268.5C2444.5 1258.56 2452.33 1250.5 2462 1250.5 2471.67 1250.5 2479.5 1258.56 2479.5 1268.5 2479.5 1278.44 2471.67 1286.5 2462 1286.5 2452.33 1286.5 2444.5 1278.44 2444.5 1268.5Z" stroke="#000000" stroke-width="4.58333" stroke-miterlimit="8" fill="none" fill-rule="evenodd"/><path d="M2155.5 783.5 2268.53 783.5 2268.53 972.058" stroke="#000000" stroke-width="6.875" stroke-miterlimit="8" fill="none" fill-rule="evenodd"/></g></svg>